<svg width="963" height="545" viewBox="0 0 963 545" fill="none" xmlns="http://www.w3.org/2000/svg">
<path d="M253 161.5H453C458.523 161.5 463 165.977 463 171.5V315.5" stroke="#805CD6" stroke-opacity="0.25" stroke-width="2"/>
<path d="M519 370.5H726" stroke="#805CD6" stroke-opacity="0.25" stroke-width="2"/>
<rect x="129" y="96" width="126" height="126" rx="24" fill="white"/>
<rect x="129" y="96" width="126" height="126" rx="24" stroke="black" stroke-width="2"/>
<g clip-path="url(#clip0_24_27)">
<path fill-rule="evenodd" clip-rule="evenodd" d="M219.43 129.819L221.179 132.13C221.639 132.74 221.524 133.615 220.916 134.075L219.059 135.492C219.396 136.393 219.612 137.356 219.7 138.339L221.814 138.63C222.571 138.732 223.098 139.437 222.996 140.196L222.605 143.076C222.503 143.835 221.801 144.371 221.044 144.262L218.734 143.944C218.322 144.845 217.795 145.672 217.174 146.411L218.471 148.119C218.93 148.729 218.809 149.603 218.201 150.064L215.897 151.819C215.29 152.28 214.418 152.158 213.959 151.555L212.547 149.691C211.642 150.03 210.69 150.247 209.703 150.335L209.413 152.456C209.312 153.215 208.609 153.744 207.853 153.642L204.982 153.249C204.226 153.148 203.699 152.443 203.8 151.684L204.117 149.366C203.226 148.952 202.395 148.424 201.659 147.807L199.957 149.101C199.349 149.562 198.477 149.447 198.018 148.837L196.269 146.526C195.809 145.916 195.924 145.042 196.532 144.581L198.39 143.164C198.052 142.256 197.836 141.3 197.748 140.318L195.634 140.026C194.877 139.925 194.344 139.22 194.452 138.461L194.843 135.58C194.952 134.821 195.647 134.292 196.404 134.394L198.714 134.713C199.126 133.818 199.653 132.984 200.267 132.245L198.977 130.538C198.518 129.934 198.633 129.06 199.241 128.599L201.544 126.844C202.152 126.383 203.023 126.498 203.483 127.108L204.894 128.972C205.793 128.633 206.752 128.416 207.731 128.328L208.022 126.207C208.123 125.447 208.825 124.912 209.582 125.014L212.453 125.407C213.209 125.508 213.743 126.213 213.635 126.972L213.317 129.29C214.216 129.704 215.04 130.233 215.783 130.856L217.485 129.562C218.093 129.094 218.964 129.209 219.43 129.819ZM170.041 170.492V159.309H175.782C176.849 159.309 177.66 159.397 178.221 159.586C178.781 159.769 179.24 160.108 179.578 160.603C179.923 161.105 180.098 161.708 180.098 162.419C180.098 163.036 179.963 163.578 179.7 164.026C179.436 164.48 179.072 164.846 178.612 165.124C178.322 165.3 177.917 165.449 177.403 165.564C177.815 165.707 178.112 165.835 178.295 165.978C178.423 166.073 178.606 166.269 178.842 166.567C179.078 166.866 179.24 167.103 179.321 167.265L180.997 170.498H177.106L175.269 167.089C175.032 166.649 174.83 166.357 174.647 166.229C174.397 166.059 174.114 165.971 173.803 165.971H173.499V170.498H170.041V170.492ZM182.185 189.964H175.755L174.83 193H169.034L175.944 174.572H182.158L189.041 193H183.097L182.185 189.964ZM180.983 185.972L178.977 179.343L176.964 185.972H180.983ZM190.379 174.572H199.822C201.882 174.572 203.422 175.06 204.442 176.043C205.462 177.025 205.975 178.428 205.975 180.238C205.975 182.102 205.414 183.559 204.3 184.609C203.185 185.66 201.476 186.182 199.187 186.182H196.073V193H190.379V174.572ZM196.073 182.447H197.471C198.572 182.447 199.349 182.258 199.795 181.871C200.24 181.492 200.463 180.997 200.463 180.407C200.463 179.831 200.267 179.336 199.882 178.937C199.497 178.537 198.768 178.333 197.701 178.333H196.073V182.447ZM208.272 174.572H213.966V193H208.272V174.572ZM173.499 163.85H174.951C175.107 163.85 175.411 163.795 175.863 163.694C176.093 163.646 176.282 163.531 176.424 163.341C176.572 163.151 176.64 162.935 176.64 162.691C176.64 162.331 176.525 162.047 176.295 161.857C176.066 161.66 175.64 161.566 175.012 161.566H173.499V163.85ZM181.659 159.309H190.879V161.694H185.117V163.477H190.46V165.754H185.117V167.957H191.047V170.485H181.659V159.309ZM191.865 166.791L195.134 166.588C195.201 167.123 195.35 167.523 195.566 167.801C195.924 168.248 196.431 168.479 197.086 168.479C197.572 168.479 197.957 168.363 198.221 168.133C198.484 167.903 198.619 167.631 198.619 167.326C198.619 167.035 198.491 166.778 198.241 166.547C197.991 166.317 197.403 166.107 196.478 165.896C194.972 165.558 193.898 165.103 193.249 164.541C192.601 163.978 192.277 163.26 192.277 162.386C192.277 161.81 192.446 161.267 192.777 160.759C193.108 160.251 193.607 159.844 194.276 159.553C194.945 159.261 195.857 159.119 197.018 159.119C198.444 159.119 199.524 159.383 200.274 159.919C201.017 160.454 201.463 161.294 201.605 162.46L198.369 162.657C198.282 162.148 198.099 161.776 197.829 161.552C197.552 161.322 197.167 161.206 196.687 161.206C196.289 161.206 195.985 161.294 195.782 161.464C195.58 161.633 195.478 161.843 195.478 162.087C195.478 162.264 195.566 162.419 195.728 162.569C195.89 162.711 196.269 162.853 196.877 162.982C198.383 163.307 199.464 163.639 200.112 163.972C200.76 164.304 201.24 164.717 201.53 165.212C201.828 165.7 201.976 166.256 201.976 166.866C201.976 167.584 201.78 168.241 201.382 168.845C200.99 169.448 200.436 169.909 199.727 170.221C199.018 170.532 198.126 170.688 197.045 170.688C195.154 170.688 193.837 170.322 193.108 169.59C192.378 168.845 191.966 167.916 191.865 166.791ZM202.476 159.309H212.952V162.074H209.44V170.492H205.995V162.074H202.476V159.309ZM190.885 132.767C189.649 132.672 188.4 132.686 187.164 132.808C183.361 133.174 179.666 134.563 176.613 136.942C173.08 139.687 170.399 143.795 169.365 149.237L169.041 150.938L167.352 151.236C165.698 151.528 164.218 151.928 162.921 152.436C161.665 152.924 160.544 153.527 159.564 154.239C158.781 154.808 158.105 155.445 157.531 156.137C155.755 158.272 154.931 160.949 154.951 163.66C154.971 166.412 155.863 169.19 157.511 171.474C158.126 172.322 158.835 173.101 159.645 173.779C160.47 174.463 161.395 175.033 162.435 175.46C163.023 175.704 163.651 175.907 164.306 176.07V181.146C162.955 180.902 161.712 180.536 160.551 180.055C159.017 179.418 157.66 178.598 156.464 177.595C155.329 176.646 154.336 175.568 153.492 174.396C151.243 171.278 150.027 167.469 150 163.673C149.973 159.837 151.162 156.021 153.728 152.931C154.559 151.928 155.539 151.006 156.66 150.193C157.964 149.244 159.456 148.444 161.145 147.787C162.307 147.332 163.55 146.953 164.86 146.648C166.346 140.724 169.514 136.163 173.587 132.998C177.396 130.036 181.983 128.308 186.704 127.854C189.183 127.616 191.696 127.725 194.155 128.186C194.1 128.409 194.053 128.633 194.026 128.863L194.019 128.904C193.972 129.29 193.952 129.677 193.972 130.07C193.452 130.273 192.966 130.551 192.527 130.89L192.506 130.903C191.851 131.398 191.297 132.035 190.885 132.767ZM226.624 145.78C227.002 146.126 227.367 146.485 227.725 146.872C228.447 147.651 229.13 148.532 229.771 149.515C231.933 152.849 233.04 157.302 232.993 161.66C232.946 165.937 231.798 170.193 229.447 173.325C227.914 175.365 225.948 177.032 223.591 178.354C221.977 179.262 220.16 180.014 218.18 180.624V175.372C219.248 174.972 220.241 174.524 221.152 174.016C222.929 173.02 224.381 171.807 225.469 170.349C227.157 168.092 227.988 164.9 228.022 161.627C228.062 158.19 227.225 154.74 225.597 152.233C225.131 151.508 224.618 150.857 224.077 150.274C223.868 150.05 223.658 149.84 223.442 149.637C223.476 149.298 223.49 148.952 223.469 148.607C223.989 148.403 224.476 148.125 224.915 147.787L224.935 147.773C225.631 147.238 226.212 146.56 226.624 145.78ZM209.494 133.676C212.608 134.103 214.783 136.983 214.357 140.108C213.932 143.232 211.061 145.421 207.947 144.994C204.833 144.567 202.652 141.687 203.084 138.562C203.516 135.438 206.38 133.249 209.494 133.676Z" fill="black"/>
</g>
<rect x="716" y="305" width="126" height="126" rx="24" fill="white"/>
<rect x="716" y="305" width="126" height="126" rx="24" stroke="black" stroke-width="2"/>
<g clip-path="url(#clip1_24_27)">
<path d="M724.343 373.598C723.926 373.599 723.517 373.487 723.157 373.274C722.797 373.061 722.499 372.754 722.293 372.384C722.09 372.017 721.989 371.601 722.001 371.18C722.012 370.759 722.135 370.349 722.357 369.994L726.578 363.226C726.794 362.863 727.101 362.564 727.467 362.361C727.833 362.158 728.245 362.057 728.662 362.07C729.078 362.08 729.484 362.203 729.838 362.426C730.192 362.649 730.482 362.964 730.678 363.339C731.072 364.099 731.022 365.013 730.551 365.726L726.333 372.494C726.119 372.834 725.825 373.114 725.477 373.307C725.129 373.5 724.739 373.6 724.343 373.598Z" fill="#F62B54"/>
<path d="M731.582 373.598C730.731 373.598 729.948 373.133 729.536 372.387C729.334 372.021 729.233 371.605 729.245 371.186C729.256 370.766 729.379 370.357 729.601 370.003L733.813 363.251C734.026 362.882 734.332 362.578 734.699 362.37C735.065 362.163 735.48 362.059 735.899 362.07C736.757 362.089 737.535 362.58 737.929 363.347C738.319 364.114 738.262 365.033 737.777 365.744L733.565 372.496C733.352 372.835 733.058 373.114 732.712 373.306C732.365 373.499 731.977 373.599 731.582 373.598Z" fill="#FFCC00"/>
<path d="M738.66 373.655C739.86 373.655 740.833 372.682 740.833 371.483C740.833 370.283 739.86 369.311 738.66 369.311C737.46 369.311 736.487 370.283 736.487 371.483C736.487 372.682 737.46 373.655 738.66 373.655Z" fill="#00CA72"/>
<path d="M833.06 369.437C833.716 369.437 834.109 369.913 834.109 370.694V373.369H835V370.633C835 369.305 834.388 368.535 833.236 368.535C832.785 368.535 832.07 368.661 831.643 369.508C831.544 369.258 831.381 369.041 831.17 368.878C830.96 368.716 830.71 368.615 830.448 368.586C830.282 368.555 830.114 368.545 829.947 368.555C829.58 368.586 828.927 368.818 828.683 369.346V368.637H827.791V373.369H828.683V370.815C828.683 369.822 829.32 369.437 829.958 369.437C830.555 369.437 830.947 369.903 830.947 370.684V373.369H831.835V370.815C831.835 370.025 832.3 369.427 833.06 369.437ZM824.515 372.578C824.923 372.587 825.317 372.421 825.602 372.12C825.888 371.819 826.04 371.409 826.025 370.988C826.025 370.035 825.338 369.437 824.515 369.437C823.692 369.437 823.006 370.035 823.006 370.988C822.99 371.408 823.142 371.817 823.426 372.117C823.711 372.419 824.102 372.586 824.508 372.578H824.515ZM824.515 373.466C823.212 373.466 822.123 372.482 822.123 370.982C822.123 369.482 823.212 368.53 824.515 368.53C825.819 368.53 826.916 369.482 826.916 370.982C826.916 372.482 825.813 373.47 824.509 373.47L824.515 373.466ZM817.531 370.982L817.522 370.988C817.522 369.488 818.639 368.535 819.952 368.53C820.282 368.523 820.609 368.588 820.913 368.718C821.217 368.849 821.491 369.044 821.716 369.29L821.04 369.878C820.897 369.734 820.727 369.62 820.54 369.544C820.353 369.467 820.153 369.429 819.952 369.432C819.129 369.432 818.414 370.03 818.414 370.982C818.414 371.626 818.789 372.206 819.364 372.452C819.939 372.699 820.6 372.562 821.04 372.107L821.726 372.695C821.5 372.943 821.225 373.14 820.919 373.273C820.614 373.406 820.284 373.471 819.952 373.466C818.649 373.466 817.531 372.482 817.531 370.982ZM814.676 372.461C814.675 372.378 814.69 372.296 814.72 372.219C814.751 372.142 814.795 372.072 814.852 372.013C814.908 371.954 814.976 371.907 815.05 371.874C815.125 371.841 815.205 371.824 815.286 371.823C815.367 371.824 815.447 371.841 815.522 371.874C815.596 371.907 815.664 371.954 815.72 372.013C815.777 372.072 815.822 372.142 815.852 372.219C815.882 372.296 815.897 372.378 815.896 372.461C815.888 372.621 815.82 372.772 815.707 372.883C815.594 372.994 815.443 373.057 815.286 373.059C815.129 373.057 814.978 372.994 814.865 372.883C814.752 372.772 814.684 372.621 814.676 372.461Z" fill="#333333"/>
<path fill-rule="evenodd" clip-rule="evenodd" d="M817.116 362.621H813.94L811.714 368.48L809.5 362.621H806.325L810.185 371.879L807.784 378H810.936L817.116 362.621ZM797.804 367.77C797.804 369.249 799.07 370.223 800.314 370.223C801.536 370.223 802.737 369.317 802.737 367.769C802.737 366.222 801.536 365.315 800.314 365.315C799.07 365.315 797.804 366.29 797.804 367.77ZM802.737 372.94V371.768C802.094 372.764 800.591 373.14 799.82 373.14C797.268 373.14 794.715 371.086 794.715 367.769C794.715 364.454 797.267 362.4 799.82 362.4C800.463 362.4 801.966 362.619 802.737 363.769V362.624H805.697V372.942L802.737 372.94ZM793.873 372.94H790.913V371.658C790.419 372.608 789.219 373.161 787.975 373.161C785.4 373.161 783.126 371.062 783.126 367.811C783.126 364.5 785.4 362.398 787.975 362.398C789.218 362.398 790.42 362.927 790.913 363.878V357H793.873V372.94ZM790.849 367.747C790.849 366.2 789.755 365.293 788.533 365.293C787.266 365.293 786.215 366.266 786.215 367.747C786.215 369.275 787.266 370.243 788.532 370.243C789.777 370.245 790.849 369.227 790.849 367.747ZM775.808 367.48C775.808 365.911 776.602 365.381 777.653 365.381C778.66 365.381 779.39 366.066 779.39 367.435V372.938H782.371V366.773C782.371 363.835 780.955 362.398 778.702 362.398C777.523 362.398 776.344 363.083 775.807 364.122V362.621H772.827V372.938H775.808V367.48ZM766.774 373.115C763.942 373.115 761.581 370.994 761.581 367.746C761.581 364.495 763.94 362.395 766.774 362.395C769.607 362.395 771.987 364.495 771.987 367.746C771.987 370.996 769.605 373.115 766.774 373.115ZM766.774 370.111C768.017 370.111 769.048 369.182 769.048 367.747C769.048 366.354 768.017 365.404 766.774 365.404C766.474 365.399 766.177 365.456 765.9 365.573C765.623 365.689 765.372 365.862 765.162 366.08C764.951 366.3 764.786 366.561 764.676 366.847C764.566 367.133 764.513 367.439 764.521 367.747C764.522 369.184 765.551 370.111 766.774 370.111ZM756.236 365.382C757.115 365.382 757.888 366.089 757.888 367.436V372.94H760.848V367.08C760.848 363.965 759.364 362.396 756.986 362.396C756.28 362.396 754.949 362.615 753.984 364.229C753.426 363.036 752.353 362.417 750.769 362.417C750.219 362.414 749.679 362.573 749.215 362.875C748.751 363.177 748.382 363.609 748.152 364.119V362.622H745.169V372.939H748.15V367.48C748.15 365.911 748.987 365.381 749.887 365.381C750.746 365.381 751.516 366.066 751.539 367.369V372.939H754.52V367.48C754.52 365.98 755.293 365.382 756.236 365.382Z" fill="#333333"/>
</g>
<rect x="399" y="304" width="128" height="128" rx="25" fill="#805CD6"/>
<g clip-path="url(#clip2_24_27)" filter="url(#filter0_d_24_27)">
<path fill-rule="evenodd" clip-rule="evenodd" d="M441.958 340.167C440.417 340.167 439.167 341.417 439.167 342.958V382.042C439.167 383.584 440.417 384.833 441.958 384.833H481.042C482.583 384.833 483.833 383.584 483.833 382.042V342.958C483.833 341.417 482.583 340.167 481.042 340.167H441.958ZM433.583 342.958C433.583 338.333 437.333 334.583 441.958 334.583H481.042C485.667 334.583 489.417 338.333 489.417 342.958V382.042C489.417 386.667 485.667 390.417 481.042 390.417H441.958C437.333 390.417 433.583 386.667 433.583 382.042V342.958Z" fill="white"/>
<path fill-rule="evenodd" clip-rule="evenodd" d="M447.542 362.5C447.542 360.958 448.792 359.708 450.333 359.708H472.667C474.208 359.708 475.458 360.958 475.458 362.5C475.458 364.042 474.208 365.292 472.667 365.292H450.333C448.792 365.292 447.542 364.042 447.542 362.5Z" fill="white"/>
<path fill-rule="evenodd" clip-rule="evenodd" d="M459.526 349.359C460.616 348.269 462.384 348.269 463.474 349.359L474.641 360.526C475.731 361.616 475.731 363.384 474.641 364.474L463.474 375.641C462.384 376.731 460.616 376.731 459.526 375.641C458.436 374.55 458.436 372.783 459.526 371.693L468.719 362.5L459.526 353.307C458.436 352.217 458.436 350.449 459.526 349.359Z" fill="white"/>
</g>
<g filter="url(#filter1_d_24_27)">
<path d="M436.676 398.469V407H434.771V398.469H436.676ZM439.271 398.469V399.951H432.229V398.469H439.271ZM441.908 398V407H440.08V398H441.908ZM441.668 403.607L441.211 403.619C441.211 403.174 441.266 402.766 441.375 402.395C441.488 402.02 441.648 401.693 441.855 401.416C442.062 401.139 442.311 400.924 442.6 400.771C442.893 400.619 443.215 400.543 443.566 400.543C443.879 400.543 444.164 400.588 444.422 400.678C444.68 400.768 444.902 400.91 445.09 401.105C445.277 401.301 445.422 401.557 445.523 401.873C445.625 402.189 445.676 402.574 445.676 403.027V407H443.836V403.016C443.836 402.746 443.797 402.535 443.719 402.383C443.645 402.23 443.535 402.123 443.391 402.061C443.25 401.998 443.078 401.967 442.875 401.967C442.637 401.967 442.439 402.01 442.283 402.096C442.127 402.178 442.004 402.293 441.914 402.441C441.824 402.59 441.76 402.764 441.721 402.963C441.686 403.162 441.668 403.377 441.668 403.607ZM449.859 407.117C449.355 407.117 448.904 407.037 448.506 406.877C448.107 406.717 447.77 406.496 447.492 406.215C447.219 405.93 447.01 405.602 446.865 405.23C446.721 404.859 446.648 404.463 446.648 404.041V403.818C446.648 403.346 446.715 402.91 446.848 402.512C446.98 402.113 447.174 401.768 447.428 401.475C447.686 401.178 448.002 400.949 448.377 400.789C448.752 400.625 449.18 400.543 449.66 400.543C450.109 400.543 450.51 400.617 450.861 400.766C451.213 400.91 451.51 401.119 451.752 401.393C451.994 401.662 452.178 401.988 452.303 402.371C452.432 402.75 452.496 403.176 452.496 403.648V404.398H447.387V403.221H450.703V403.08C450.703 402.857 450.662 402.662 450.58 402.494C450.502 402.326 450.385 402.197 450.229 402.107C450.076 402.014 449.883 401.967 449.648 401.967C449.426 401.967 449.24 402.014 449.092 402.107C448.943 402.201 448.824 402.334 448.734 402.506C448.648 402.674 448.586 402.871 448.547 403.098C448.508 403.32 448.488 403.561 448.488 403.818V404.041C448.488 404.287 448.521 404.512 448.588 404.715C448.654 404.918 448.752 405.092 448.881 405.236C449.01 405.381 449.166 405.494 449.35 405.576C449.533 405.658 449.742 405.699 449.977 405.699C450.266 405.699 450.541 405.645 450.803 405.535C451.064 405.422 451.291 405.246 451.482 405.008L452.338 405.986C452.209 406.174 452.027 406.355 451.793 406.531C451.562 406.703 451.285 406.844 450.961 406.953C450.637 407.062 450.27 407.117 449.859 407.117ZM458.379 398.469V407H456.469V398.469H458.379ZM461.736 402.066V403.543H457.846V402.066H461.736ZM462.111 398.469V399.951H457.846V398.469H462.111ZM465.809 407.117C465.305 407.117 464.854 407.037 464.455 406.877C464.057 406.717 463.719 406.496 463.441 406.215C463.168 405.93 462.959 405.602 462.814 405.23C462.67 404.859 462.598 404.463 462.598 404.041V403.818C462.598 403.346 462.664 402.91 462.797 402.512C462.93 402.113 463.123 401.768 463.377 401.475C463.635 401.178 463.951 400.949 464.326 400.789C464.701 400.625 465.129 400.543 465.609 400.543C466.059 400.543 466.459 400.617 466.811 400.766C467.162 400.91 467.459 401.119 467.701 401.393C467.943 401.662 468.127 401.988 468.252 402.371C468.381 402.75 468.445 403.176 468.445 403.648V404.398H463.336V403.221H466.652V403.08C466.652 402.857 466.611 402.662 466.529 402.494C466.451 402.326 466.334 402.197 466.178 402.107C466.025 402.014 465.832 401.967 465.598 401.967C465.375 401.967 465.189 402.014 465.041 402.107C464.893 402.201 464.773 402.334 464.684 402.506C464.598 402.674 464.535 402.871 464.496 403.098C464.457 403.32 464.438 403.561 464.438 403.818V404.041C464.438 404.287 464.471 404.512 464.537 404.715C464.604 404.918 464.701 405.092 464.83 405.236C464.959 405.381 465.115 405.494 465.299 405.576C465.482 405.658 465.691 405.699 465.926 405.699C466.215 405.699 466.49 405.645 466.752 405.535C467.014 405.422 467.24 405.246 467.432 405.008L468.287 405.986C468.158 406.174 467.977 406.355 467.742 406.531C467.512 406.703 467.234 406.844 466.91 406.953C466.586 407.062 466.219 407.117 465.809 407.117ZM472.559 400.66V401.943H468.797V400.66H472.559ZM469.658 399.09H471.492V405.014C471.492 405.189 471.514 405.324 471.557 405.418C471.6 405.512 471.67 405.578 471.768 405.617C471.865 405.652 471.99 405.67 472.143 405.67C472.252 405.67 472.346 405.666 472.424 405.658C472.502 405.65 472.574 405.641 472.641 405.629V406.953C472.484 407.004 472.318 407.043 472.143 407.07C471.967 407.102 471.775 407.117 471.568 407.117C471.174 407.117 470.832 407.053 470.543 406.924C470.258 406.795 470.039 406.592 469.887 406.314C469.734 406.033 469.658 405.668 469.658 405.219V399.09ZM476.086 405.693C476.281 405.693 476.451 405.656 476.596 405.582C476.74 405.508 476.852 405.404 476.93 405.271C477.012 405.135 477.053 404.971 477.053 404.779H478.775C478.775 405.24 478.656 405.646 478.418 405.998C478.184 406.35 477.867 406.625 477.469 406.824C477.07 407.02 476.621 407.117 476.121 407.117C475.629 407.117 475.199 407.037 474.832 406.877C474.465 406.713 474.158 406.484 473.912 406.191C473.666 405.898 473.48 405.559 473.355 405.172C473.234 404.781 473.174 404.359 473.174 403.906V403.754C473.174 403.305 473.234 402.885 473.355 402.494C473.48 402.104 473.666 401.762 473.912 401.469C474.158 401.176 474.463 400.949 474.826 400.789C475.193 400.625 475.623 400.543 476.115 400.543C476.635 400.543 477.094 400.643 477.492 400.842C477.895 401.041 478.209 401.328 478.436 401.703C478.662 402.074 478.775 402.521 478.775 403.045H477.053C477.053 402.842 477.016 402.66 476.941 402.5C476.871 402.336 476.762 402.207 476.613 402.113C476.469 402.016 476.289 401.967 476.074 401.967C475.852 401.967 475.668 402.016 475.523 402.113C475.383 402.207 475.275 402.338 475.201 402.506C475.127 402.674 475.076 402.865 475.049 403.08C475.021 403.291 475.008 403.516 475.008 403.754V403.906C475.008 404.148 475.021 404.379 475.049 404.598C475.076 404.812 475.127 405.002 475.201 405.166C475.279 405.33 475.389 405.459 475.529 405.553C475.67 405.646 475.855 405.693 476.086 405.693ZM481.471 398V407H479.643V398H481.471ZM481.23 403.607L480.773 403.619C480.773 403.174 480.828 402.766 480.938 402.395C481.051 402.02 481.211 401.693 481.418 401.416C481.625 401.139 481.873 400.924 482.162 400.771C482.455 400.619 482.777 400.543 483.129 400.543C483.441 400.543 483.727 400.588 483.984 400.678C484.242 400.768 484.465 400.91 484.652 401.105C484.84 401.301 484.984 401.557 485.086 401.873C485.188 402.189 485.238 402.574 485.238 403.027V407H483.398V403.016C483.398 402.746 483.359 402.535 483.281 402.383C483.207 402.23 483.098 402.123 482.953 402.061C482.812 401.998 482.641 401.967 482.438 401.967C482.199 401.967 482.002 402.01 481.846 402.096C481.689 402.178 481.566 402.293 481.477 402.441C481.387 402.59 481.322 402.764 481.283 402.963C481.248 403.162 481.23 403.377 481.23 403.607ZM489.422 407.117C488.918 407.117 488.467 407.037 488.068 406.877C487.67 406.717 487.332 406.496 487.055 406.215C486.781 405.93 486.572 405.602 486.428 405.23C486.283 404.859 486.211 404.463 486.211 404.041V403.818C486.211 403.346 486.277 402.91 486.41 402.512C486.543 402.113 486.736 401.768 486.99 401.475C487.248 401.178 487.564 400.949 487.939 400.789C488.314 400.625 488.742 400.543 489.223 400.543C489.672 400.543 490.072 400.617 490.424 400.766C490.775 400.91 491.072 401.119 491.314 401.393C491.557 401.662 491.74 401.988 491.865 402.371C491.994 402.75 492.059 403.176 492.059 403.648V404.398H486.949V403.221H490.266V403.08C490.266 402.857 490.225 402.662 490.143 402.494C490.064 402.326 489.947 402.197 489.791 402.107C489.639 402.014 489.445 401.967 489.211 401.967C488.988 401.967 488.803 402.014 488.654 402.107C488.506 402.201 488.387 402.334 488.297 402.506C488.211 402.674 488.148 402.871 488.109 403.098C488.07 403.32 488.051 403.561 488.051 403.818V404.041C488.051 404.287 488.084 404.512 488.15 404.715C488.217 404.918 488.314 405.092 488.443 405.236C488.572 405.381 488.729 405.494 488.912 405.576C489.096 405.658 489.305 405.699 489.539 405.699C489.828 405.699 490.104 405.645 490.365 405.535C490.627 405.422 490.854 405.246 491.045 405.008L491.9 405.986C491.771 406.174 491.59 406.355 491.355 406.531C491.125 406.703 490.848 406.844 490.523 406.953C490.199 407.062 489.832 407.117 489.422 407.117ZM494.783 402.137V407H492.955V400.66H494.672L494.783 402.137ZM496.676 400.613L496.646 402.318C496.568 402.307 496.467 402.297 496.342 402.289C496.217 402.277 496.109 402.271 496.02 402.271C495.785 402.271 495.582 402.301 495.41 402.359C495.242 402.414 495.102 402.496 494.988 402.605C494.879 402.715 494.797 402.852 494.742 403.016C494.688 403.176 494.66 403.361 494.66 403.572L494.314 403.402C494.314 402.984 494.355 402.602 494.438 402.254C494.52 401.906 494.639 401.605 494.795 401.352C494.951 401.094 495.143 400.895 495.369 400.754C495.596 400.613 495.854 400.543 496.143 400.543C496.236 400.543 496.332 400.549 496.43 400.561C496.527 400.572 496.609 400.59 496.676 400.613Z" fill="white"/>
</g>
<g filter="url(#filter2_gf_24_27)">
<circle cx="463" cy="239" r="5" fill="#805CD6"/>
</g>
<circle cx="463" cy="239" r="5" fill="#E8DEFF" fill-opacity="0.4"/>
<g filter="url(#filter3_gf_24_27)">
<circle cx="637" cy="371" r="5" fill="#805CD6"/>
</g>
<circle cx="637" cy="371" r="5" fill="#E8DEFF" fill-opacity="0.4"/>
<defs>
<filter id="filter0_d_24_27" x="424" y="329" width="75" height="75" filterUnits="userSpaceOnUse" color-interpolation-filters="sRGB">
<feFlood flood-opacity="0" result="BackgroundImageFix"/>
<feColorMatrix in="SourceAlpha" type="matrix" values="0 0 0 0 0 0 0 0 0 0 0 0 0 0 0 0 0 0 127 0" result="hardAlpha"/>
<feOffset dy="4"/>
<feGaussianBlur stdDeviation="2"/>
<feComposite in2="hardAlpha" operator="out"/>
<feColorMatrix type="matrix" values="0 0 0 0 0 0 0 0 0 0 0 0 0 0 0 0 0 0 0.25 0"/>
<feBlend mode="normal" in2="BackgroundImageFix" result="effect1_dropShadow_24_27"/>
<feBlend mode="normal" in="SourceGraphic" in2="effect1_dropShadow_24_27" result="shape"/>
</filter>
<filter id="filter1_d_24_27" x="428.229" y="398" width="72.4473" height="17.1172" filterUnits="userSpaceOnUse" color-interpolation-filters="sRGB">
<feFlood flood-opacity="0" result="BackgroundImageFix"/>
<feColorMatrix in="SourceAlpha" type="matrix" values="0 0 0 0 0 0 0 0 0 0 0 0 0 0 0 0 0 0 127 0" result="hardAlpha"/>
<feOffset dy="4"/>
<feGaussianBlur stdDeviation="2"/>
<feComposite in2="hardAlpha" operator="out"/>
<feColorMatrix type="matrix" values="0 0 0 0 0 0 0 0 0 0 0 0 0 0 0 0 0 0 0.25 0"/>
<feBlend mode="normal" in2="BackgroundImageFix" result="effect1_dropShadow_24_27"/>
<feBlend mode="normal" in="SourceGraphic" in2="effect1_dropShadow_24_27" result="shape"/>
</filter>
<filter id="filter2_gf_24_27" x="444" y="220" width="38" height="38" filterUnits="userSpaceOnUse" color-interpolation-filters="sRGB">
<feFlood flood-opacity="0" result="BackgroundImageFix"/>
<feBlend mode="normal" in="SourceGraphic" in2="BackgroundImageFix" result="shape"/>
<feTurbulence type="fractalNoise" baseFrequency="2 2" numOctaves="3" seed="8577" />
<feDisplacementMap in="shape" scale="8" xChannelSelector="R" yChannelSelector="G" result="displacedImage" width="100%" height="100%" />
<feMerge result="effect1_texture_24_27">
<feMergeNode in="displacedImage"/>
</feMerge>
<feGaussianBlur stdDeviation="7" result="effect2_foregroundBlur_24_27"/>
</filter>
<filter id="filter3_gf_24_27" x="618" y="352" width="38" height="38" filterUnits="userSpaceOnUse" color-interpolation-filters="sRGB">
<feFlood flood-opacity="0" result="BackgroundImageFix"/>
<feBlend mode="normal" in="SourceGraphic" in2="BackgroundImageFix" result="shape"/>
<feTurbulence type="fractalNoise" baseFrequency="2 2" numOctaves="3" seed="8577" />
<feDisplacementMap in="shape" scale="8" xChannelSelector="R" yChannelSelector="G" result="displacedImage" width="100%" height="100%" />
<feMerge result="effect1_texture_24_27">
<feMergeNode in="displacedImage"/>
</feMerge>
<feGaussianBlur stdDeviation="7" result="effect2_foregroundBlur_24_27"/>
</filter>
<clipPath id="clip0_24_27">
<rect width="83" height="68" fill="white" transform="translate(150 125)"/>
</clipPath>
<clipPath id="clip1_24_27">
<rect width="113" height="21" fill="white" transform="translate(722 357)"/>
</clipPath>
<clipPath id="clip2_24_27">
<rect width="67" height="67" fill="white" transform="translate(428 329)"/>
</clipPath>
</defs>
</svg>
