<svg width="845" height="239" viewBox="0 0 845 239" fill="none" xmlns="http://www.w3.org/2000/svg">
<g clip-path="url(#clip0_24_91)">
<path fill-rule="evenodd" clip-rule="evenodd" d="M49.7916 39.8333C44.2918 39.8333 39.8333 44.2918 39.8333 49.7916V189.208C39.8333 194.708 44.2918 199.167 49.7916 199.167H189.208C194.708 199.167 199.167 194.708 199.167 189.208V49.7916C199.167 44.2918 194.708 39.8333 189.208 39.8333H49.7916ZM19.9166 49.7916C19.9166 33.2921 33.2921 19.9166 49.7916 19.9166H189.208C205.708 19.9166 219.083 33.2921 219.083 49.7916V189.208C219.083 205.708 205.708 219.083 189.208 219.083H49.7916C33.2921 219.083 19.9166 205.708 19.9166 189.208V49.7916Z" fill="#805CD6"/>
<path fill-rule="evenodd" clip-rule="evenodd" d="M69.7084 119.5C69.7084 114 74.1669 109.542 79.6667 109.542H159.333C164.833 109.542 169.292 114 169.292 119.5C169.292 125 164.833 129.458 159.333 129.458H79.6667C74.1669 129.458 69.7084 125 69.7084 119.5Z" fill="#805CD6"/>
<path fill-rule="evenodd" clip-rule="evenodd" d="M112.458 72.6251C116.347 68.7361 122.653 68.7361 126.542 72.6251L166.375 112.458C170.264 116.347 170.264 122.653 166.375 126.542L126.542 166.375C122.653 170.264 116.347 170.264 112.458 166.375C108.569 162.486 108.569 156.181 112.458 152.292L145.25 119.5L112.458 86.7083C108.569 82.8193 108.569 76.5141 112.458 72.6251Z" fill="#805CD6"/>
</g>
<path d="M340.406 90.75V159H325.172V90.75H340.406ZM361.172 90.75V102.609H304.828V90.75H361.172ZM382.266 87V159H367.641V87H382.266ZM380.344 131.859L376.688 131.953C376.688 128.391 377.125 125.125 378 122.156C378.906 119.156 380.188 116.547 381.844 114.328C383.5 112.109 385.484 110.391 387.797 109.172C390.141 107.953 392.719 107.344 395.531 107.344C398.031 107.344 400.312 107.703 402.375 108.422C404.438 109.141 406.219 110.281 407.719 111.844C409.219 113.406 410.375 115.453 411.188 117.984C412 120.516 412.406 123.594 412.406 127.219V159H397.688V127.125C397.688 124.969 397.375 123.281 396.75 122.062C396.156 120.844 395.281 119.984 394.125 119.484C393 118.984 391.625 118.734 390 118.734C388.094 118.734 386.516 119.078 385.266 119.766C384.016 120.422 383.031 121.344 382.312 122.531C381.594 123.719 381.078 125.109 380.766 126.703C380.484 128.297 380.344 130.016 380.344 131.859ZM445.875 159.938C441.844 159.938 438.234 159.297 435.047 158.016C431.859 156.734 429.156 154.969 426.938 152.719C424.75 150.438 423.078 147.812 421.922 144.844C420.766 141.875 420.188 138.703 420.188 135.328V133.547C420.188 129.766 420.719 126.281 421.781 123.094C422.844 119.906 424.391 117.141 426.422 114.797C428.484 112.422 431.016 110.594 434.016 109.312C437.016 108 440.438 107.344 444.281 107.344C447.875 107.344 451.078 107.938 453.891 109.125C456.703 110.281 459.078 111.953 461.016 114.141C462.953 116.297 464.422 118.906 465.422 121.969C466.453 125 466.969 128.406 466.969 132.188V138.188H426.094V128.766H452.625V127.641C452.625 125.859 452.297 124.297 451.641 122.953C451.016 121.609 450.078 120.578 448.828 119.859C447.609 119.109 446.062 118.734 444.188 118.734C442.406 118.734 440.922 119.109 439.734 119.859C438.547 120.609 437.594 121.672 436.875 123.047C436.188 124.391 435.688 125.969 435.375 127.781C435.062 129.562 434.906 131.484 434.906 133.547V135.328C434.906 137.297 435.172 139.094 435.703 140.719C436.234 142.344 437.016 143.734 438.047 144.891C439.078 146.047 440.328 146.953 441.797 147.609C443.266 148.266 444.938 148.594 446.812 148.594C449.125 148.594 451.328 148.156 453.422 147.281C455.516 146.375 457.328 144.969 458.859 143.062L465.703 150.891C464.672 152.391 463.219 153.844 461.344 155.25C459.5 156.625 457.281 157.75 454.688 158.625C452.094 159.5 449.156 159.938 445.875 159.938ZM514.031 90.75V159H498.75V90.75H514.031ZM540.891 119.531V131.344H509.766V119.531H540.891ZM543.891 90.75V102.609H509.766V90.75H543.891ZM573.469 159.938C569.438 159.938 565.828 159.297 562.641 158.016C559.453 156.734 556.75 154.969 554.531 152.719C552.344 150.438 550.672 147.812 549.516 144.844C548.359 141.875 547.781 138.703 547.781 135.328V133.547C547.781 129.766 548.312 126.281 549.375 123.094C550.438 119.906 551.984 117.141 554.016 114.797C556.078 112.422 558.609 110.594 561.609 109.312C564.609 108 568.031 107.344 571.875 107.344C575.469 107.344 578.672 107.938 581.484 109.125C584.297 110.281 586.672 111.953 588.609 114.141C590.547 116.297 592.016 118.906 593.016 121.969C594.047 125 594.562 128.406 594.562 132.188V138.188H553.688V128.766H580.219V127.641C580.219 125.859 579.891 124.297 579.234 122.953C578.609 121.609 577.672 120.578 576.422 119.859C575.203 119.109 573.656 118.734 571.781 118.734C570 118.734 568.516 119.109 567.328 119.859C566.141 120.609 565.188 121.672 564.469 123.047C563.781 124.391 563.281 125.969 562.969 127.781C562.656 129.562 562.5 131.484 562.5 133.547V135.328C562.5 137.297 562.766 139.094 563.297 140.719C563.828 142.344 564.609 143.734 565.641 144.891C566.672 146.047 567.922 146.953 569.391 147.609C570.859 148.266 572.531 148.594 574.406 148.594C576.719 148.594 578.922 148.156 581.016 147.281C583.109 146.375 584.922 144.969 586.453 143.062L593.297 150.891C592.266 152.391 590.812 153.844 588.938 155.25C587.094 156.625 584.875 157.75 582.281 158.625C579.688 159.5 576.75 159.938 573.469 159.938ZM627.469 108.281V118.547H597.375V108.281H627.469ZM604.266 95.7188H618.938V143.109C618.938 144.516 619.109 145.594 619.453 146.344C619.797 147.094 620.359 147.625 621.141 147.938C621.922 148.219 622.922 148.359 624.141 148.359C625.016 148.359 625.766 148.328 626.391 148.266C627.016 148.203 627.594 148.125 628.125 148.031V158.625C626.875 159.031 625.547 159.344 624.141 159.562C622.734 159.812 621.203 159.938 619.547 159.938C616.391 159.938 613.656 159.422 611.344 158.391C609.062 157.359 607.312 155.734 606.094 153.516C604.875 151.266 604.266 148.344 604.266 144.75V95.7188ZM655.688 148.547C657.25 148.547 658.609 148.25 659.766 147.656C660.922 147.062 661.812 146.234 662.438 145.172C663.094 144.078 663.422 142.766 663.422 141.234H677.203C677.203 144.922 676.25 148.172 674.344 150.984C672.469 153.797 669.938 156 666.75 157.594C663.562 159.156 659.969 159.938 655.969 159.938C652.031 159.938 648.594 159.297 645.656 158.016C642.719 156.703 640.266 154.875 638.297 152.531C636.328 150.188 634.844 147.469 633.844 144.375C632.875 141.25 632.391 137.875 632.391 134.25V133.031C632.391 129.438 632.875 126.078 633.844 122.953C634.844 119.828 636.328 117.094 638.297 114.75C640.266 112.406 642.703 110.594 645.609 109.312C648.547 108 651.984 107.344 655.922 107.344C660.078 107.344 663.75 108.141 666.938 109.734C670.156 111.328 672.672 113.625 674.484 116.625C676.297 119.594 677.203 123.172 677.203 127.359H663.422C663.422 125.734 663.125 124.281 662.531 123C661.969 121.688 661.094 120.656 659.906 119.906C658.75 119.125 657.312 118.734 655.594 118.734C653.812 118.734 652.344 119.125 651.188 119.906C650.062 120.656 649.203 121.703 648.609 123.047C648.016 124.391 647.609 125.922 647.391 127.641C647.172 129.328 647.062 131.125 647.062 133.031V134.25C647.062 136.188 647.172 138.031 647.391 139.781C647.609 141.5 648.016 143.016 648.609 144.328C649.234 145.641 650.109 146.672 651.234 147.422C652.359 148.172 653.844 148.547 655.688 148.547ZM698.766 87V159H684.141V87H698.766ZM696.844 131.859L693.188 131.953C693.188 128.391 693.625 125.125 694.5 122.156C695.406 119.156 696.688 116.547 698.344 114.328C700 112.109 701.984 110.391 704.297 109.172C706.641 107.953 709.219 107.344 712.031 107.344C714.531 107.344 716.812 107.703 718.875 108.422C720.938 109.141 722.719 110.281 724.219 111.844C725.719 113.406 726.875 115.453 727.688 117.984C728.5 120.516 728.906 123.594 728.906 127.219V159H714.188V127.125C714.188 124.969 713.875 123.281 713.25 122.062C712.656 120.844 711.781 119.984 710.625 119.484C709.5 118.984 708.125 118.734 706.5 118.734C704.594 118.734 703.016 119.078 701.766 119.766C700.516 120.422 699.531 121.344 698.812 122.531C698.094 123.719 697.578 125.109 697.266 126.703C696.984 128.297 696.844 130.016 696.844 131.859ZM762.375 159.938C758.344 159.938 754.734 159.297 751.547 158.016C748.359 156.734 745.656 154.969 743.438 152.719C741.25 150.438 739.578 147.812 738.422 144.844C737.266 141.875 736.688 138.703 736.688 135.328V133.547C736.688 129.766 737.219 126.281 738.281 123.094C739.344 119.906 740.891 117.141 742.922 114.797C744.984 112.422 747.516 110.594 750.516 109.312C753.516 108 756.938 107.344 760.781 107.344C764.375 107.344 767.578 107.938 770.391 109.125C773.203 110.281 775.578 111.953 777.516 114.141C779.453 116.297 780.922 118.906 781.922 121.969C782.953 125 783.469 128.406 783.469 132.188V138.188H742.594V128.766H769.125V127.641C769.125 125.859 768.797 124.297 768.141 122.953C767.516 121.609 766.578 120.578 765.328 119.859C764.109 119.109 762.562 118.734 760.688 118.734C758.906 118.734 757.422 119.109 756.234 119.859C755.047 120.609 754.094 121.672 753.375 123.047C752.688 124.391 752.188 125.969 751.875 127.781C751.562 129.562 751.406 131.484 751.406 133.547V135.328C751.406 137.297 751.672 139.094 752.203 140.719C752.734 142.344 753.516 143.734 754.547 144.891C755.578 146.047 756.828 146.953 758.297 147.609C759.766 148.266 761.438 148.594 763.312 148.594C765.625 148.594 767.828 148.156 769.922 147.281C772.016 146.375 773.828 144.969 775.359 143.062L782.203 150.891C781.172 152.391 779.719 153.844 777.844 155.25C776 156.625 773.781 157.75 771.188 158.625C768.594 159.5 765.656 159.938 762.375 159.938ZM805.266 120.094V159H790.641V108.281H804.375L805.266 120.094ZM820.406 107.906L820.172 121.547C819.547 121.453 818.734 121.375 817.734 121.312C816.734 121.219 815.875 121.172 815.156 121.172C813.281 121.172 811.656 121.406 810.281 121.875C808.938 122.312 807.812 122.969 806.906 123.844C806.031 124.719 805.375 125.812 804.938 127.125C804.5 128.406 804.281 129.891 804.281 131.578L801.516 130.219C801.516 126.875 801.844 123.812 802.5 121.031C803.156 118.25 804.109 115.844 805.359 113.812C806.609 111.75 808.141 110.156 809.953 109.031C811.766 107.906 813.828 107.344 816.141 107.344C816.891 107.344 817.656 107.391 818.438 107.484C819.219 107.578 819.875 107.719 820.406 107.906Z" fill="black"/>
<defs>
<clipPath id="clip0_24_91">
<rect width="239" height="239" fill="white"/>
</clipPath>
</defs>
</svg>
